<svg width="512" height="512" viewBox="0 0 512 512" fill="none" xmlns="http://www.w3.org/2000/svg">
<path d="M481.35 74.3508L480.597 58.4778L465.689 53.9978C464.674 53.6714 439.877 46.2541 370.067 27.8889C296.023 8.3666 261.742 1.21643 260.292 0.919737L255.97 0L251.591 0.919737C250.199 1.18676 215.947 8.3666 141.874 27.8889C72.1512 46.2541 47.3538 53.7011 46.3097 53.9978L31.4313 58.4778L30.6484 74.3211C30.5614 76.1309 29.4881 102.18 34.7086 149.77C48.5139 142.738 62.4063 135.855 76.6757 129.921C75.2255 113.9 74.5875 101.29 74.3555 92.3896C88.6828 88.3546 113.654 81.501 152.721 71.1762C210.958 55.8669 244.63 48.1826 255.941 45.6904C267.282 48.1826 300.983 55.8669 359.133 71.1762C398.258 81.4714 423.258 88.3546 437.585 92.3896C437.179 106.364 435.874 129.328 431.843 160.569C427.812 191.84 421.083 231.3 409.917 278.326C387.962 370.716 309.103 425.455 255.912 459.426C222.82 438.302 179.722 409.018 146.601 367.66C141.207 368.935 135.783 370.122 130.244 370.805C119.223 372.169 108.231 372.407 97.3256 374.513C140.163 438.539 203.679 478.919 242.919 503.752L255.883 512L268.616 503.96C323.17 469.454 424.766 405.221 452.377 288.859C484.686 153.211 481.495 77.5254 481.35 74.3508Z" fill="#F0771E"/>
</svg>
