<svg width="512" height="128" viewBox="0 0 512 128" fill="none" xmlns="http://www.w3.org/2000/svg">
<g clip-path="url(#clip0_0_3)">
<path d="M16.2797 118.15H10.81V100.017H16.5221C18.2414 100.017 19.7127 100.381 20.9359 101.107C22.1591 101.827 23.0967 102.863 23.7487 104.214C24.4007 105.56 24.7267 107.171 24.7267 109.048C24.7267 110.937 24.3977 112.563 23.74 113.927C23.0823 115.284 22.1245 116.328 20.8667 117.06C19.6089 117.786 18.0799 118.15 16.2797 118.15ZM12.9563 116.202H16.1412C17.6068 116.202 18.8213 115.913 19.7848 115.334C20.7484 114.756 21.4667 113.933 21.9398 112.864C22.4129 111.796 22.6495 110.524 22.6495 109.048C22.6495 107.585 22.4159 106.324 21.9485 105.268C21.4811 104.205 20.783 103.391 19.8541 102.824C18.9252 102.251 17.7683 101.965 16.3836 101.965H12.9563V116.202ZM28.05 118.15V104.55H30.0925V118.15H28.05ZM29.0886 102.284C28.6905 102.284 28.3472 102.145 28.0587 101.868C27.7759 101.591 27.6346 101.257 27.6346 100.868C27.6346 100.478 27.7759 100.145 28.0587 99.8672C28.3472 99.5899 28.6905 99.4509 29.0886 99.4509C29.4867 99.4509 29.8271 99.5899 30.1098 99.8672C30.3983 100.145 30.5425 100.478 30.5425 100.868C30.5425 101.257 30.3983 101.591 30.1098 101.868C29.8271 102.145 29.4867 102.284 29.0886 102.284ZM39.1994 123.533C38.2127 123.533 37.3646 123.403 36.6549 123.143C35.9452 122.89 35.3538 122.553 34.8806 122.134C34.4133 121.721 34.0412 121.278 33.7642 120.806L35.3913 119.637C35.5759 119.885 35.8096 120.168 36.0923 120.487C36.375 120.811 36.7616 121.092 37.252 121.328C37.7483 121.57 38.3973 121.691 39.1994 121.691C40.2725 121.691 41.1582 121.426 41.8563 120.895C42.5545 120.363 42.9035 119.531 42.9035 118.398V115.636H42.7304C42.5804 115.883 42.3669 116.19 42.09 116.556C41.8188 116.916 41.4265 117.238 40.913 117.521C40.4052 117.798 39.7186 117.937 38.8532 117.937C37.78 117.937 36.8164 117.678 35.9625 117.158C35.1144 116.639 34.4422 115.883 33.946 114.892C33.4555 113.9 33.2103 112.696 33.2103 111.279C33.2103 109.887 33.4498 108.673 33.9287 107.641C34.4075 106.602 35.0739 105.799 35.9279 105.232C36.7818 104.66 37.7684 104.374 38.8878 104.374C39.7532 104.374 40.4398 104.521 40.9476 104.816C41.4611 105.106 41.8534 105.436 42.1246 105.807C42.4016 106.174 42.615 106.475 42.765 106.711H42.9728V104.55H44.946V118.539C44.946 119.708 44.6864 120.658 44.1671 121.39C43.6536 122.128 42.9612 122.668 42.09 123.01C41.2245 123.358 40.261 123.533 39.1994 123.533ZM39.1301 116.06C39.9494 116.06 40.6418 115.869 41.2072 115.485C41.7727 115.101 42.2025 114.549 42.4967 113.829C42.791 113.109 42.9381 112.247 42.9381 111.244C42.9381 110.264 42.7939 109.4 42.5054 108.65C42.2169 107.9 41.79 107.313 41.2245 106.888C40.6591 106.463 39.961 106.25 39.1301 106.25C38.2647 106.25 37.5434 106.475 36.9665 106.923C36.3952 107.372 35.9654 107.974 35.6769 108.729C35.3942 109.485 35.2529 110.323 35.2529 111.244C35.2529 112.188 35.3971 113.023 35.6855 113.749C35.9798 114.47 36.4125 115.036 36.9837 115.449C37.5607 115.857 38.2762 116.06 39.1301 116.06ZM48.6848 118.15V104.55H50.7273V118.15H48.6848ZM49.7233 102.284C49.3252 102.284 48.9819 102.145 48.6934 101.868C48.4108 101.591 48.2694 101.257 48.2694 100.868C48.2694 100.478 48.4108 100.145 48.6934 99.8672C48.9819 99.5899 49.3252 99.4509 49.7233 99.4509C50.1215 99.4509 50.4619 99.5899 50.7446 99.8672C51.0331 100.145 51.1774 100.478 51.1774 100.868C51.1774 101.257 51.0331 101.591 50.7446 101.868C50.4619 102.145 50.1215 102.284 49.7233 102.284ZM60.2495 104.55V106.321H53.3605V104.55H60.2495ZM55.3683 101.292H57.4108V114.254C57.4108 114.844 57.4945 115.287 57.6618 115.582C57.8349 115.872 58.0542 116.066 58.3195 116.167C58.5907 116.261 58.8763 116.308 59.1763 116.308C59.4014 116.308 59.586 116.296 59.7303 116.273C59.8745 116.243 59.9899 116.22 60.0764 116.202L60.4919 118.079C60.3534 118.132 60.1601 118.185 59.912 118.238C59.6639 118.297 59.3494 118.326 58.9687 118.326C58.3917 118.326 57.8262 118.2 57.2724 117.946C56.7242 117.692 56.2684 117.305 55.9049 116.786C55.5472 116.267 55.3683 115.612 55.3683 114.82V101.292ZM67.2338 118.468C66.3914 118.468 65.627 118.306 64.9404 117.981C64.2538 117.651 63.7085 117.176 63.3046 116.556C62.9007 115.93 62.6988 115.175 62.6988 114.289C62.6988 113.51 62.8488 112.879 63.1489 112.395C63.4489 111.905 63.8499 111.521 64.3519 111.244C64.8538 110.966 65.4077 110.76 66.0135 110.624C66.6251 110.482 67.2396 110.371 67.857 110.287C68.6647 110.182 69.3196 110.102 69.8216 110.048C70.3293 109.99 70.6986 109.892 70.9293 109.756C71.1659 109.621 71.2842 109.385 71.2842 109.048V108.977C71.2842 108.104 71.0505 107.425 70.5832 106.941C70.1216 106.457 69.4206 106.215 68.4801 106.215C67.505 106.215 66.7405 106.433 66.1866 106.87C65.6327 107.307 65.2433 107.773 65.0182 108.269L63.0796 107.56C63.4258 106.734 63.8874 106.091 64.4643 105.631C65.0471 105.165 65.6818 104.84 66.3684 104.657C67.0607 104.468 67.7416 104.374 68.4108 104.374C68.8378 104.374 69.3283 104.427 69.8821 104.533C70.4418 104.633 70.9812 104.843 71.5006 105.162C72.0259 105.48 72.4609 105.961 72.8076 106.605C73.1534 107.248 73.3267 108.11 73.3267 109.19V118.15H71.2842V116.308H71.1803C71.0419 116.604 70.811 116.919 70.4879 117.255C70.1649 117.592 69.735 117.878 69.1985 118.115C68.6619 118.35 68.007 118.468 67.2338 118.468ZM67.5454 116.591C68.3532 116.591 69.034 116.429 69.5878 116.105C70.1475 115.78 70.5687 115.361 70.8515 114.848C71.14 114.333 71.2842 113.793 71.2842 113.227V111.314C71.1976 111.421 71.0072 111.518 70.713 111.607C70.4245 111.69 70.0899 111.763 69.709 111.828C69.334 111.887 68.9676 111.94 68.6099 111.988C68.2579 112.029 67.9723 112.064 67.7531 112.094C67.2223 112.165 66.7261 112.28 66.2645 112.439C65.8087 112.593 65.4394 112.825 65.1567 113.139C64.8797 113.446 64.7413 113.865 64.7413 114.396C64.7413 115.122 65.0038 115.671 65.5289 116.042C66.0597 116.409 66.7319 116.591 67.5454 116.591ZM79.0968 100.017V118.15H77.0546V100.017H79.0968ZM89.9696 118.15V100.017H95.9583C97.3433 100.017 98.4802 100.259 99.3683 100.743C100.257 101.222 100.915 101.88 101.341 102.718C101.769 103.556 101.982 104.509 101.982 105.578C101.982 106.646 101.769 107.594 101.341 108.42C100.915 109.246 100.26 109.895 99.3769 110.368C98.4946 110.833 97.3663 111.066 95.9928 111.066H91.1468V109.083H95.9238C96.8701 109.083 97.6316 108.942 98.2084 108.659C98.7916 108.376 99.2129 107.974 99.4725 107.455C99.7379 106.929 99.8702 106.303 99.8702 105.578C99.8702 104.852 99.7379 104.217 99.4725 103.674C99.2072 103.131 98.7829 102.712 98.1997 102.417C97.6173 102.116 96.8471 101.965 95.8893 101.965H92.1161V118.15H89.9696ZM98.3126 110.004L102.675 118.15H100.182L95.8893 110.004H98.3126ZM110.713 118.433C109.431 118.433 108.327 118.144 107.398 117.565C106.474 116.981 105.762 116.167 105.26 115.122C104.764 114.071 104.516 112.85 104.516 111.456C104.516 110.063 104.764 108.836 105.26 107.773C105.762 106.705 106.46 105.873 107.355 105.276C108.254 104.675 109.305 104.374 110.505 104.374C111.197 104.374 111.881 104.491 112.556 104.728C113.231 104.964 113.845 105.348 114.4 105.879C114.953 106.404 115.395 107.101 115.724 107.968C116.052 108.836 116.217 109.904 116.217 111.173V112.058H105.97V110.252H114.14C114.14 109.485 113.99 108.8 113.69 108.198C113.395 107.597 112.974 107.121 112.426 106.773C111.884 106.425 111.244 106.25 110.505 106.25C109.691 106.25 108.987 106.457 108.393 106.87C107.805 107.277 107.352 107.808 107.035 108.464C106.717 109.119 106.559 109.821 106.559 110.571V111.775C106.559 112.802 106.731 113.673 107.078 114.387C107.429 115.095 107.917 115.636 108.54 116.007C109.163 116.373 109.887 116.556 110.713 116.556C111.249 116.556 111.734 116.479 112.166 116.326C112.605 116.167 112.983 115.93 113.3 115.618C113.617 115.299 113.862 114.904 114.036 114.431L116.009 114.998C115.801 115.683 115.452 116.284 114.962 116.804C114.472 117.317 113.865 117.719 113.144 118.008C112.424 118.291 111.612 118.433 110.713 118.433ZM119.324 123.249V104.55H121.297V106.711H121.54C121.689 106.475 121.897 106.174 122.162 105.807C122.433 105.436 122.82 105.106 123.322 104.816C123.83 104.521 124.517 104.374 125.382 104.374C126.501 104.374 127.488 104.66 128.342 105.232C129.196 105.805 129.862 106.617 130.341 107.667C130.82 108.718 131.06 109.957 131.06 111.386C131.06 112.825 130.82 114.074 130.341 115.131C129.862 116.181 129.199 116.996 128.351 117.574C127.502 118.147 126.524 118.433 125.417 118.433C124.563 118.433 123.879 118.288 123.365 117.999C122.852 117.704 122.456 117.371 122.18 116.999C121.903 116.621 121.689 116.308 121.54 116.06H121.366V123.249H119.324ZM121.332 111.35C121.332 112.377 121.478 113.283 121.773 114.068C122.067 114.848 122.497 115.458 123.063 115.901C123.628 116.337 124.32 116.556 125.139 116.556C125.994 116.556 126.706 116.326 127.277 115.866C127.855 115.399 128.287 114.773 128.575 113.988C128.87 113.198 129.017 112.318 129.017 111.35C129.017 110.394 128.873 109.532 128.584 108.765C128.301 107.992 127.872 107.381 127.295 106.932C126.724 106.478 126.005 106.25 125.139 106.25C124.309 106.25 123.611 106.466 123.045 106.897C122.48 107.321 122.053 107.918 121.765 108.685C121.476 109.447 121.332 110.335 121.332 111.35ZM142.553 112.589V104.55H144.595V118.15H142.553V115.847H142.414C142.103 116.538 141.618 117.126 140.96 117.61C140.302 118.087 139.472 118.326 138.468 118.326C137.637 118.326 136.898 118.141 136.252 117.769C135.606 117.391 135.098 116.824 134.729 116.069C134.36 115.307 134.175 114.349 134.175 113.192V104.55H136.218V113.05C136.218 114.041 136.489 114.832 137.031 115.423C137.579 116.013 138.277 116.308 139.126 116.308C139.634 116.308 140.15 116.175 140.675 115.91C141.206 115.644 141.65 115.237 142.007 114.688C142.371 114.139 142.553 113.44 142.553 112.589ZM154.118 104.55V106.321H147.229V104.55H154.118ZM149.237 101.292H151.279V114.254C151.279 114.844 151.362 115.287 151.53 115.582C151.703 115.872 151.922 116.066 152.188 116.167C152.459 116.261 152.744 116.308 153.044 116.308C153.269 116.308 153.454 116.296 153.599 116.273C153.742 116.243 153.858 116.22 153.944 116.202L154.36 118.079C154.221 118.132 154.028 118.185 153.78 118.238C153.532 118.297 153.217 118.326 152.837 118.326C152.26 118.326 151.694 118.2 151.141 117.946C150.592 117.692 150.136 117.305 149.773 116.786C149.416 116.267 149.237 115.612 149.237 114.82V101.292ZM161.102 118.468C160.26 118.468 159.495 118.306 158.808 117.981C158.122 117.651 157.577 117.176 157.173 116.556C156.769 115.93 156.567 115.175 156.567 114.289C156.567 113.51 156.717 112.879 157.017 112.395C157.317 111.905 157.718 111.521 158.22 111.244C158.722 110.966 159.276 110.76 159.881 110.624C160.493 110.482 161.107 110.371 161.725 110.287C162.533 110.182 163.188 110.102 163.69 110.048C164.197 109.99 164.566 109.892 164.797 109.756C165.034 109.621 165.152 109.385 165.152 109.048V108.977C165.152 108.104 164.919 107.425 164.451 106.941C163.99 106.457 163.288 106.215 162.348 106.215C161.373 106.215 160.608 106.433 160.055 106.87C159.501 107.307 159.111 107.773 158.886 108.269L156.947 107.56C157.294 106.734 157.756 106.091 158.332 105.631C158.915 105.165 159.55 104.84 160.237 104.657C160.929 104.468 161.609 104.374 162.279 104.374C162.706 104.374 163.196 104.427 163.75 104.533C164.31 104.633 164.85 104.843 165.369 105.162C165.894 105.48 166.33 105.961 166.675 106.605C167.021 107.248 167.195 108.11 167.195 109.19V118.15H165.152V116.308H165.048C164.91 116.604 164.679 116.919 164.356 117.255C164.033 117.592 163.603 117.878 163.066 118.115C162.53 118.35 161.875 118.468 161.102 118.468ZM161.414 116.591C162.221 116.591 162.902 116.429 163.456 116.105C164.015 115.78 164.437 115.361 164.719 114.848C165.008 114.333 165.152 113.793 165.152 113.227V111.314C165.065 111.421 164.876 111.518 164.581 111.607C164.292 111.69 163.958 111.763 163.577 111.828C163.202 111.887 162.835 111.94 162.478 111.988C162.126 112.029 161.84 112.064 161.621 112.094C161.09 112.165 160.594 112.28 160.132 112.439C159.676 112.593 159.308 112.825 159.025 113.139C158.748 113.446 158.609 113.865 158.609 114.396C158.609 115.122 158.872 115.671 159.397 116.042C159.927 116.409 160.6 116.591 161.414 116.591ZM176.704 104.55V106.321H169.815V104.55H176.704ZM171.823 101.292H173.865V114.254C173.865 114.844 173.949 115.287 174.116 115.582C174.289 115.872 174.509 116.066 174.774 116.167C175.045 116.261 175.331 116.308 175.631 116.308C175.855 116.308 176.04 116.296 176.185 116.273C176.329 116.243 176.444 116.22 176.531 116.202L176.946 118.079C176.808 118.132 176.615 118.185 176.367 118.238C176.119 118.297 175.804 118.326 175.423 118.326C174.846 118.326 174.281 118.2 173.727 117.946C173.179 117.692 172.723 117.305 172.359 116.786C172.002 116.267 171.823 115.612 171.823 114.82V101.292ZM179.776 118.15V104.55H181.819V118.15H179.776ZM180.815 102.284C180.417 102.284 180.074 102.145 179.785 101.868C179.502 101.591 179.361 101.257 179.361 100.868C179.361 100.478 179.502 100.145 179.785 99.8672C180.074 99.5899 180.417 99.4509 180.815 99.4509C181.213 99.4509 181.554 99.5899 181.836 99.8672C182.125 100.145 182.269 100.478 182.269 100.868C182.269 101.257 182.125 101.591 181.836 101.868C181.554 102.145 181.213 102.284 180.815 102.284ZM190.96 118.433C189.76 118.433 188.707 118.141 187.801 117.556C186.902 116.972 186.198 116.155 185.69 115.104C185.188 114.053 184.937 112.825 184.937 111.421C184.937 110.004 185.188 108.768 185.69 107.711C186.198 106.655 186.902 105.835 187.801 105.25C188.707 104.666 189.76 104.374 190.96 104.374C192.16 104.374 193.21 104.666 194.111 105.25C195.017 105.835 195.721 106.655 196.223 107.711C196.73 108.768 196.984 110.004 196.984 111.421C196.984 112.825 196.73 114.053 196.223 115.104C195.721 116.155 195.017 116.972 194.111 117.556C193.21 118.141 192.16 118.433 190.96 118.433ZM190.96 116.556C191.872 116.556 192.622 116.317 193.21 115.839C193.799 115.361 194.235 114.732 194.518 113.953C194.8 113.174 194.941 112.33 194.941 111.421C194.941 110.512 194.8 109.665 194.518 108.88C194.235 108.095 193.799 107.46 193.21 106.976C192.622 106.492 191.872 106.25 190.96 106.25C190.048 106.25 189.298 106.492 188.71 106.976C188.122 107.46 187.686 108.095 187.404 108.88C187.12 109.665 186.979 110.512 186.979 111.421C186.979 112.33 187.12 113.174 187.404 113.953C187.686 114.732 188.122 115.361 188.71 115.839C189.298 116.317 190.048 116.556 190.96 116.556ZM202.144 109.969V118.15H200.101V104.55H202.075V106.676H202.248C202.56 105.985 203.032 105.43 203.667 105.011C204.302 104.586 205.121 104.374 206.125 104.374C207.026 104.374 207.813 104.562 208.488 104.94C209.163 105.312 209.688 105.879 210.063 106.64C210.438 107.396 210.625 108.352 210.625 109.508V118.15H208.583V109.65C208.583 108.582 208.312 107.75 207.77 107.154C207.228 106.551 206.483 106.25 205.537 106.25C204.885 106.25 204.302 106.395 203.789 106.684C203.281 106.973 202.88 107.396 202.586 107.95C202.291 108.505 202.144 109.178 202.144 109.969ZM233.606 105.684C233.415 105.088 233.164 104.553 232.853 104.082C232.547 103.604 232.181 103.196 231.754 102.86C231.333 102.523 230.854 102.266 230.317 102.09C229.781 101.912 229.192 101.824 228.552 101.824C227.501 101.824 226.546 102.101 225.687 102.656C224.827 103.211 224.144 104.028 223.636 105.109C223.128 106.189 222.874 107.513 222.874 109.083C222.874 110.654 223.131 111.979 223.645 113.059C224.158 114.139 224.854 114.957 225.73 115.511C226.607 116.066 227.594 116.343 228.69 116.343C229.705 116.343 230.6 116.122 231.373 115.68C232.152 115.231 232.758 114.6 233.191 113.785C233.629 112.964 233.848 111.999 233.848 110.89L234.506 111.031H229.175V109.083H235.926V111.031C235.926 112.525 235.613 113.823 234.991 114.927C234.373 116.031 233.519 116.887 232.429 117.494C231.344 118.096 230.098 118.398 228.69 118.398C227.121 118.398 225.742 118.02 224.553 117.264C223.37 116.509 222.447 115.435 221.784 114.041C221.126 112.649 220.797 110.996 220.797 109.083C220.797 107.649 220.985 106.36 221.359 105.215C221.741 104.063 222.277 103.084 222.97 102.275C223.662 101.466 224.481 100.847 225.427 100.416C226.374 99.9849 227.415 99.7694 228.552 99.7694C229.486 99.7694 230.358 99.9143 231.165 100.203C231.979 100.487 232.703 100.891 233.338 101.416C233.978 101.936 234.512 102.558 234.939 103.284C235.365 104.004 235.66 104.804 235.821 105.684H233.606ZM247.702 112.589V104.55H249.745V118.15H247.702V115.847H247.564C247.252 116.538 246.767 117.126 246.11 117.61C245.452 118.087 244.621 118.326 243.617 118.326C242.787 118.326 242.048 118.141 241.402 117.769C240.755 117.391 240.247 116.824 239.878 116.069C239.509 115.307 239.325 114.349 239.325 113.192V104.55H241.367V113.05C241.367 114.041 241.638 114.832 242.18 115.423C242.728 116.013 243.427 116.308 244.275 116.308C244.783 116.308 245.299 116.175 245.824 115.91C246.355 115.644 246.799 115.237 247.157 114.688C247.52 114.139 247.702 113.44 247.702 112.589ZM257.397 118.468C256.555 118.468 255.791 118.306 255.104 117.981C254.417 117.651 253.872 117.176 253.468 116.556C253.065 115.93 252.863 115.175 252.863 114.289C252.863 113.51 253.012 112.879 253.313 112.395C253.613 111.905 254.014 111.521 254.516 111.244C255.018 110.966 255.571 110.76 256.177 110.624C256.789 110.482 257.403 110.371 258.021 110.287C258.828 110.182 259.483 110.102 259.985 110.048C260.493 109.99 260.863 109.892 261.093 109.756C261.329 109.621 261.448 109.385 261.448 109.048V108.977C261.448 108.104 261.214 107.425 260.747 106.941C260.285 106.457 259.584 106.215 258.643 106.215C257.668 106.215 256.904 106.433 256.35 106.87C255.797 107.307 255.407 107.773 255.182 108.269L253.243 107.56C253.59 106.734 254.051 106.091 254.628 105.631C255.21 105.165 255.845 104.84 256.532 104.657C257.225 104.468 257.905 104.374 258.574 104.374C259.002 104.374 259.492 104.427 260.046 104.533C260.605 104.633 261.145 104.843 261.664 105.162C262.189 105.48 262.625 105.961 262.971 106.605C263.318 107.248 263.49 108.11 263.49 109.19V118.15H261.448V116.308H261.344C261.206 116.604 260.975 116.919 260.652 117.255C260.328 117.592 259.899 117.878 259.362 118.115C258.825 118.35 258.171 118.468 257.397 118.468ZM257.709 116.591C258.517 116.591 259.198 116.429 259.752 116.105C260.311 115.78 260.732 115.361 261.015 114.848C261.303 114.333 261.448 113.793 261.448 113.227V111.314C261.362 111.421 261.171 111.518 260.877 111.607C260.588 111.69 260.253 111.763 259.872 111.828C259.498 111.887 259.131 111.94 258.774 111.988C258.422 112.029 258.136 112.064 257.917 112.094C257.386 112.165 256.89 112.28 256.428 112.439C255.973 112.593 255.603 112.825 255.32 113.139C255.044 113.446 254.905 113.865 254.905 114.396C254.905 115.122 255.167 115.671 255.692 116.042C256.224 116.409 256.895 116.591 257.709 116.591ZM267.218 118.15V104.55H269.192V106.605H269.33C269.572 105.932 270.011 105.386 270.645 104.967C271.28 104.547 271.996 104.338 272.792 104.338C272.942 104.338 273.13 104.341 273.355 104.347C273.579 104.353 273.75 104.362 273.865 104.374V106.498C273.796 106.481 273.637 106.454 273.389 106.419C273.147 106.378 272.89 106.357 272.619 106.357C271.973 106.357 271.396 106.495 270.888 106.773C270.386 107.044 269.988 107.422 269.694 107.906C269.405 108.384 269.261 108.93 269.261 109.544V118.15H267.218ZM280.901 118.433C279.794 118.433 278.816 118.147 277.967 117.574C277.119 116.996 276.456 116.181 275.977 115.131C275.498 114.074 275.258 112.825 275.258 111.386C275.258 109.957 275.498 108.718 275.977 107.667C276.456 106.617 277.122 105.805 277.976 105.232C278.83 104.66 279.817 104.374 280.936 104.374C281.801 104.374 282.485 104.521 282.987 104.816C283.495 105.106 283.882 105.436 284.147 105.807C284.418 106.174 284.629 106.475 284.778 106.711H284.952V100.017H286.994V118.15H285.021V116.06H284.778C284.629 116.308 284.415 116.621 284.138 116.999C283.861 117.371 283.466 117.704 282.953 117.999C282.439 118.288 281.755 118.433 280.901 118.433ZM281.178 116.556C281.998 116.556 282.69 116.337 283.255 115.901C283.821 115.458 284.251 114.848 284.545 114.068C284.839 113.283 284.986 112.377 284.986 111.35C284.986 110.335 284.842 109.447 284.553 108.685C284.265 107.918 283.838 107.321 283.273 106.897C282.707 106.466 282.009 106.25 281.178 106.25C280.313 106.25 279.592 106.478 279.015 106.932C278.443 107.381 278.014 107.992 277.725 108.765C277.442 109.532 277.301 110.394 277.301 111.35C277.301 112.318 277.445 113.198 277.733 113.988C278.028 114.773 278.46 115.399 279.032 115.866C279.609 116.326 280.324 116.556 281.178 116.556ZM291.019 118.15V104.55H293.061V118.15H291.019ZM292.057 102.284C291.659 102.284 291.316 102.145 291.027 101.868C290.745 101.591 290.603 101.257 290.603 100.868C290.603 100.478 290.745 100.145 291.027 99.8672C291.316 99.5899 291.659 99.4509 292.057 99.4509C292.456 99.4509 292.796 99.5899 293.078 99.8672C293.367 100.145 293.511 100.478 293.511 100.868C293.511 101.257 293.367 101.591 293.078 101.868C292.796 102.145 292.456 102.284 292.057 102.284ZM300.714 118.468C299.872 118.468 299.107 118.306 298.421 117.981C297.734 117.651 297.189 117.176 296.785 116.556C296.381 115.93 296.179 115.175 296.179 114.289C296.179 113.51 296.329 112.879 296.629 112.395C296.929 111.905 297.33 111.521 297.832 111.244C298.334 110.966 298.888 110.76 299.493 110.624C300.105 110.482 300.719 110.371 301.337 110.287C302.145 110.182 302.8 110.102 303.302 110.048C303.809 109.99 304.178 109.892 304.409 109.756C304.646 109.621 304.764 109.385 304.764 109.048V108.977C304.764 108.104 304.531 107.425 304.063 106.941C303.602 106.457 302.901 106.215 301.96 106.215C300.985 106.215 300.22 106.433 299.667 106.87C299.113 107.307 298.723 107.773 298.498 108.269L296.559 107.56C296.906 106.734 297.368 106.091 297.944 105.631C298.527 105.165 299.162 104.84 299.849 104.657C300.541 104.468 301.221 104.374 301.891 104.374C302.318 104.374 302.808 104.427 303.362 104.533C303.922 104.633 304.462 104.843 304.981 105.162C305.506 105.48 305.942 105.961 306.287 106.605C306.633 107.248 306.807 108.11 306.807 109.19V118.15H304.764V116.308H304.66C304.522 116.604 304.291 116.919 303.968 117.255C303.645 117.592 303.215 117.878 302.678 118.115C302.142 118.35 301.487 118.468 300.714 118.468ZM301.025 116.591C301.833 116.591 302.514 116.429 303.068 116.105C303.628 115.78 304.049 115.361 304.332 114.848C304.62 114.333 304.764 113.793 304.764 113.227V111.314C304.677 111.421 304.488 111.518 304.193 111.607C303.904 111.69 303.57 111.763 303.189 111.828C302.814 111.887 302.447 111.94 302.09 111.988C301.738 112.029 301.452 112.064 301.233 112.094C300.702 112.165 300.206 112.28 299.744 112.439C299.288 112.593 298.92 112.825 298.637 113.139C298.36 113.446 298.221 113.865 298.221 114.396C298.221 115.122 298.484 115.671 299.009 116.042C299.539 116.409 300.212 116.591 301.025 116.591ZM312.577 109.969V118.15H310.535V104.55H312.508V106.676H312.681C312.992 105.985 313.466 105.43 314.101 105.011C314.735 104.586 315.555 104.374 316.558 104.374C317.459 104.374 318.246 104.562 318.921 104.94C319.596 105.312 320.121 105.879 320.496 106.64C320.872 107.396 321.059 108.352 321.059 109.508V118.15H319.016V109.65C319.016 108.582 318.745 107.75 318.203 107.154C317.66 106.551 316.916 106.25 315.97 106.25C315.318 106.25 314.735 106.395 314.221 106.684C313.714 106.973 313.313 107.396 313.018 107.95C312.724 108.505 312.577 109.178 312.577 109.969Z" fill="black"/>
<path d="M79.1299 21.6497L74.1105 51.84L71.7519 74.2841H70.6661L66.5384 51.84L58.7649 21.6497H37.8103L30.044 52.0386L26.0099 74.2768H24.924L22.5654 52.0386L17.5461 21.6497H0.431458L13.7204 89.0703H35.3582L43.2323 59.189L47.662 37.8556H48.6472L53.0697 59.189L61.0445 89.0703H82.5887L95.8634 21.6497H79.1299Z" fill="black"/>
<path d="M99.1928 21.6497L99.387 32.7136H113.848V21.6497H99.1928ZM99.387 38.4515V89.0703H114.143V38.4515H99.387Z" fill="black"/>
<path d="M150.537 37.4437C143.547 37.4437 139.132 41.4676 136.665 46.5949H136.076V38.4515H122.405V89.0704H137.061V57.372C137.061 51.8326 139.225 50.2216 143.748 50.2216C148.372 50.2216 150.048 51.9356 150.048 57.372V60.0938H164.703V55.4593C164.703 45.3002 160.863 37.4437 150.537 37.4437Z" fill="black"/>
<path d="M202.182 72.5628C202.182 75.6818 199.622 76.9913 193.719 76.9913C185.658 76.9913 182.903 74.1738 182.609 67.1264H216.543C216.838 65.4124 217.233 62.5067 217.233 59.6818C217.233 46.492 208.475 37.4437 193.625 37.4437C178.179 37.4437 168.744 47.7057 168.744 63.9117C168.744 79.9117 176.511 90.0708 193.532 90.0708C207.698 90.0708 216.751 83.7297 216.751 72.9674V71.9595H202.197V72.5628H202.182ZM193.129 49.817C200.018 49.817 203.362 52.7375 203.067 57.9752H182.702C183.299 52.6418 186.053 49.817 193.129 49.817Z" fill="black"/>
<path d="M285.102 48.7136V47.8087C285.102 31.1025 274.582 20.6418 255.101 20.6418C235.326 20.6418 223.525 34.3246 223.525 55.3563C223.525 76.388 235.326 90.0708 255.101 90.0708C274.582 90.0708 285.102 79.6101 285.102 62.9039V61.9991H269.361V62.4993C269.361 72.1582 265.435 75.4759 255 75.4759C243.89 75.4759 239.259 71.349 239.259 55.349C239.259 39.349 243.883 35.2221 255 35.2221C265.435 35.2221 269.361 38.5471 269.361 48.1986V48.6988H285.102V48.7136Z" fill="black"/>
<path d="M320.906 37.4437C313.916 37.4437 309.487 41.4676 307.027 46.5949H306.445V38.4515H292.768V89.0704H307.423V57.372C307.423 51.8326 309.587 50.2216 314.118 50.2216C318.742 50.2216 320.417 51.9356 320.417 57.372V60.0938H335.072V55.4593C335.072 45.3002 331.232 37.4437 320.906 37.4437Z" fill="black"/>
<path d="M372.545 72.5628C372.545 75.6818 369.985 76.9913 364.088 76.9913C356.02 76.9913 353.266 74.1738 352.971 67.1264H386.912C387.2 65.4124 387.603 62.5067 387.603 59.6818C387.603 46.492 378.844 37.4437 363.995 37.4437C348.548 37.4437 339.107 47.7057 339.107 63.9117C339.107 79.9117 346.88 90.0708 363.901 90.0708C378.067 90.0708 387.114 83.7297 387.114 72.9674V71.9595H372.559V72.5628H372.545ZM363.498 49.817C370.38 49.817 373.724 52.7375 373.429 57.9752H353.064C353.654 52.6418 356.408 49.817 363.498 49.817Z" fill="black"/>
<path d="M423.5 59.4832L415.166 57.7251L414.447 57.5706C408.55 56.3641 407.666 55.6579 407.666 53.2451C407.666 51.0161 408.838 49.7287 413.641 49.5448C414.051 49.5301 414.483 49.5228 414.943 49.5228C421.242 49.5228 422.616 51.3324 422.616 54.6575V56.0699H436.681V54.6575C436.681 43.292 427.441 37.451 415.331 37.451C414.13 37.451 412.973 37.4952 411.858 37.5982C407.608 37.9586 404.084 39.0106 401.309 40.5995C396.361 43.417 393.801 47.9706 393.801 53.4437C393.801 61.977 398.209 66.2363 406.357 68.2961C407.155 68.4947 407.982 68.6786 408.845 68.8405L416.316 70.2529C416.956 70.3706 417.56 70.4883 418.107 70.5913C423.162 71.5991 424.284 72.3274 424.284 74.7844C424.284 76.6823 423.723 77.668 420.883 78.0285C419.955 78.1536 418.776 78.2051 417.294 78.2051C411.858 78.2051 409.298 77.7416 408.378 75.8952C408.219 75.5862 408.111 75.2405 408.047 74.8359C407.989 74.4901 407.953 74.1002 407.953 73.6736V71.5623H393.888V71.8639C393.888 83.6046 400.813 89.5485 415.022 90.0414C415.662 90.0708 416.324 90.0782 417 90.0782C420.933 90.0782 424.356 89.5779 427.247 88.6363C434.409 86.3191 438.249 81.3168 438.249 74.5784C438.249 66.3246 433.92 61.4989 423.5 59.4832Z" fill="black"/>
<path d="M476.706 50.9278V38.4515H462.742V26.6814H451.135L448.381 38.4515H440.119V50.9278H447.986V72.4671C447.986 84.4432 454.184 89.269 467.071 89.269C470.515 89.269 474.355 88.7687 476.706 88.2612V75.6818H470.616C464.216 75.6818 462.742 75.1816 462.742 70.7457V50.9205H476.706V50.9278Z" fill="black"/>
<path d="M511.533 18.9499L511.346 15.0143L507.649 13.9035C507.398 13.8225 501.249 11.9835 483.941 7.42989C465.582 2.58941 457.082 0.816561 456.723 0.742998L455.651 0.514954L454.565 0.742998C454.22 0.809205 445.728 2.58941 427.362 7.42989C410.075 11.9835 403.926 13.8299 403.667 13.9035L399.978 15.0143L399.784 18.9425C399.763 19.3913 399.497 25.8501 400.791 37.6497C404.214 35.9062 407.658 34.1995 411.196 32.7283C410.837 28.7559 410.679 25.6294 410.621 23.4225C414.174 22.4221 420.365 20.7228 430.051 18.1628C444.491 14.3669 452.84 12.4616 455.644 11.8437C458.456 12.4616 466.812 14.3669 481.23 18.1628C490.93 20.7154 497.129 22.4221 500.681 23.4225C500.581 26.8874 500.257 32.5812 499.258 40.3274C498.258 48.0809 496.59 57.8648 493.821 69.5246C488.378 92.4322 468.825 106.005 455.637 114.428C447.432 109.19 436.746 101.929 428.534 91.6745C427.196 91.9908 425.852 92.2851 424.478 92.4543C421.746 92.7926 419.02 92.8515 416.316 93.3738C426.938 109.249 442.686 119.261 452.415 125.418L455.63 127.463L458.787 125.469C472.313 116.914 497.503 100.988 504.349 72.1361C512.36 38.503 511.569 19.737 511.533 18.9499Z" fill="#F0771E"/>
</g>
<defs>
<clipPath id="clip0_0_3">
<rect width="512" height="128" fill="white"/>
</clipPath>
</defs>
</svg>
