<svg width="24" height="24" viewBox="0 0 24 24" fill="none" xmlns="http://www.w3.org/2000/svg">
  <path d="M12.006 4.295c-2.67 0-5.338.784-7.645 2.353C2.353 7.645 1.569 10.313 1.569 12.983s.784 5.338 2.353 7.645c2.307 1.569 4.975 2.353 7.645 2.353s5.338-.784 7.645-2.353c1.569-2.307 2.353-4.975 2.353-7.645s-.784-5.338-2.353-7.645c-2.307-1.569-4.975-2.353-7.645-2.353zm0 1.569c1.816 0 3.632.392 5.338 1.176 1.706.784 3.412 1.961 4.706 3.255 1.294 1.294 2.471 3 3.255 4.706.784 1.706 1.176 3.522 1.176 5.338s-.392 3.632-1.176 5.338c-.784 1.706-1.961 3.412-3.255 4.706-1.294 1.294-3 2.471-4.706 3.255-1.706.784-3.522 1.176-5.338 1.176s-3.632-.392-5.338-1.176c-1.706-.784-3.412-1.961-4.706-3.255-1.294-1.294-2.471-3-3.255-4.706-.784-1.706-1.176-3.522-1.176-5.338s.392-3.632 1.176-5.338c.784-1.706 1.961-3.412 3.255-4.706 1.294-1.294 3-2.471 4.706-3.255 1.706-.784 3.522-1.176 5.338-1.176z" fill="#00AA6C"/>
  <path d="M12.006 8.235c-2.353 0-4.706.784-6.412 2.353-1.706 1.569-2.353 3.922-2.353 6.275s.647 4.706 2.353 6.275c1.706 1.569 4.059 2.353 6.412 2.353s4.706-.784 6.412-2.353c1.706-1.569 2.353-3.922 2.353-6.275s-.647-4.706-2.353-6.275c-1.706-1.569-4.059-2.353-6.412-2.353zm0 1.569c1.569 0 3.138.392 4.314 1.176 1.176.784 2.353 1.961 3.138 3.138.785 1.177 1.177 2.745 1.177 4.314s-.392 3.138-1.177 4.314c-.785 1.177-1.962 2.354-3.138 3.138-1.176.784-2.745 1.176-4.314 1.176s-3.138-.392-4.314-1.176c-1.176-.784-2.353-1.961-3.138-3.138-.785-1.176-1.177-2.745-1.177-4.314s.392-3.138 1.177-4.314c.785-1.177 1.962-2.354 3.138-3.138 1.176-.784 2.745-1.176 4.314-1.176z" fill="#00AA6C"/>
  <path d="M12.006 10.804c-.784 0-1.569.392-2.353.784-.784.392-1.569.784-2.353 1.569-.784.785-1.176 1.569-1.176 2.353s.392 1.569 1.176 2.353c.784.785 1.569 1.177 2.353 1.569.784.392 1.569.784 2.353.784s1.569-.392 2.353-.784c.784-.392 1.569-.784 2.353-1.569.784-.784 1.176-1.569 1.176-2.353s-.392-1.569-1.176-2.353c-.784-.785-1.569-1.177-2.353-1.569-.784-.392-1.569-.784-2.353-.784z" fill="#00AA6C"/>
</svg>
